<svg xmlns="http://www.w3.org/2000/svg" version="1.1" xmlns:xlink="http://www.w3.org/1999/xlink" width="512" height="474"><svg xmlns="http://www.w3.org/2000/svg" version="1.1" xmlns:xlink="http://www.w3.org/1999/xlink" width="512" height="474"><svg xmlns="http://www.w3.org/2000/svg" viewBox="0 0 1280 1185" width="512" height="474">
  <g transform="translate(0,1185) scale(0.1,-0.1)" fill="#000000">
    <path d="M5849 10456c-4-4-262-34-271-34-9-1-155-110-170-121-14-12-156-198-190-205-101-19-653-66-713-80-55-13-273-62-337-91-57-26-355-128-342-241 6-65-109-305-124-394-52-318 543-1155 620-1215 42-31 137-188 148-203 23-31 37-215-36-273-86-68-297-316-362-345-42-19-363-174-457-130-39 18-318 248-306 264 12 17 88 262 107 306 19 44 54 146 78 198 42 91 235 336 201 385-24 34-203 44-248-6-29-32-48-134-71-171-19-30-98-148-211-225-85-59-280-84-293-72-19 17-215 445-290 538-77 95-135 250-123 302 13 53-86 152-169 150-148-3-198-313-133-313 40-1 230-312 134-344-41-13-211 14-231 26-19 11-310 115-340 128-113 47-203 66-218 74-15 7-249 98-309 144-158 119-432-53-433-142 0-44 128-154 205-131 78 25 343-25 349-25 7 0 186-101 254-135 67-35 215-135 220-135 14 0 9-100-20-100-15 0-197-34-263-39-66-6-257-42-290-46-33-4-249-39-311-20-85 26-292-52-315-95-8-16 1-241 71-277 60-31 244 68 291 85 83 31 652 57 689 67 69 19 141-20 164-25 22-6 172-62 186-66 14-4 169-84 177-84 8 0 84-50 95-50 19 0 202-118 218-143 16-25 239-278 247-297 33-75 384-372 409-392 25-21 108-55 148-75 69-37 305-28 365 18 12 10 212 84 394 175 37 19 114 45 139 58 24 13 167 75 258 119l165 81 116 0 116 1 56-38c106-73 315-517 322-722 11-330 75-492 84-530 4-17 65-132 72-156 14-49 213-335 234-370 20-35 128-175 137-189 50-76 399-337 418-355 52-47 267-200 305-230 39-30 234-172 232-178-10-29-777 130-832 139-55 8-291 74-313 74-22 0-139 30-167 35-27 4-345 77-625 106-52 5-494 43-628 30-137-13-501-278-537-340-34-57-122-31-171-31-64 0-248-145-242-204 7-57 156-150 172-161 35-24 25-259-48-276-49-11-579 215-600 232-12 10-196 109-206 115-38 21-133 173-150 188-67 56-323-220-268-295 30-41 276-95 290-107 33-26 248-66 248-91 0-18 219-229 247-285 51-102-132-301-244-232-91 56-259 22-292-59-39-93 61-250 309-251 199-1 534-62 696-69 206-9 523-143 549-149 17-4 155-98 174-106 18-7 133-76 189-99 57-22 154-71 163-71 9 0 122-80 128-80 5 0 96-65 121-75 44-19 304-167 340-185 36-18 185-107 210-119 25-13 124-84 270-152 52-24 245-122 259-126 14-3 111-40 148-47 128-26 472-173 723-211 52-8 611-81 793-27 82 23 237 171 270 249 43 104-56 408-152 513-54 58-343 379-502 520-236 211-283 319-184 293 56-15 353-45 405-51 52-6 431-40 474-48 54-10 265 26 299 26 13 0 107 30 138 30 49 0 186 76 227 85 46 9 147 81 172 91 31 12 244 220 253 234 18 30 78 231 92 250 13 18 73 140 89 138 15-2 47-122 53-130 6-7 28-157 37-223 8-66 67-347 166-456 39-43 244-112 345-116l120-4 62 40c82 54 245 385 311 511 133 255 229 541 236 553 8 12 84 256 96 297 21 71 76 347 81 410 13 182 121 473 173 635 23 74 119 451 131 485 7 19 53 210 61 228 8 18 90 200 249 282 53 27 227 150 305 175 30 10 203 82 242 91 40 9 255 68 278 107 33 53-132 267-166 267-40 0-292-182-372-170-96 13-239 167-165 313 31 62 138 238 162 276 28 44 187 196 197 219 8 20 54 87 48 135-6 52-141 171-224 165-47-3-167-107-176-211-5-56-105-263-121-284-17-21-108-136-118-103-10 32-195 72-226 76-54 6-130-65-139-151-10-102-235-476-280-566-45-90-144-262-178-404-35-144-21-972-32-1030-6-33-35-125-55-155-29-44-39-162-45-165-11-7-11 985 7 1011 15 23 25 325 47 334 31 12 27 242 40 268 32 62-75 236-152 233-73-2-170 144-165 232 5 70-61 194-92 298-9 32-136 149-155 149-8 0-414 57-482 12-14-9-228-194-325-407-47-105-134-343-148-374-13-31-75-185-102-177-11 4-134 221-157 251-13 17-90 213-105 240-15 28-101 253-132 296-10 14-67 151-74 159-17 21-56 161-70 184-14 24-93 269-106 304-28 79 147-16 242-27 93-10 280 32 300 38 22 7 218 193 229 248 6 32 32 376 15 467-35 190-3 347 0 366 9 47 133 355 157 365 60 26 321 209 362 229 41 20 99 56 114 56 42 0 233 254 108 317-44 22-267-6-289-53-9-19-60-114-134-148-43-20-192-93-215-100-24-7-198-99-223-106-42-12-188 94-215 228-11 56-95 334-37 393 38 39 18 183-63 224-82 41-331-37-332-91-1-55 117-167 128-214 19-82-33-730-65-730-9 0-242 173-291 201-25 14-179 100-235 96-236-18-120-263-41-235 63 22 225-91 251-143 10-19 56-97 69-135 13-38 105-297 113-332 15-72-101-210-164-186-44 17-192 345-343 494-56 55-242 321-259 341-17 20-356 430-478 515-53 38-88 165-95 177-6 12-84 412-259 539-98 71-368 86-370 84z"></path>
  </g>
</svg></svg><style>@media (prefers-color-scheme: light) { :root { filter: none; } }
@media (prefers-color-scheme: dark) { :root { filter: invert(100%); } }
</style></svg>